<svg version="1.1" id="Layer_1" xmlns="http://www.w3.org/2000/svg" xmlns:xlink="http://www.w3.org/1999/xlink" x="0px" y="0px"
	 width="100%" viewBox="0 0 252 236" enable-background="new 0 0 252 236" xml:space="preserve">
<path  opacity="000000" stroke="none" 
	d="
M145.000000,237.000000 
	C96.666672,237.000000 48.833340,237.000000 1.000006,237.000000 
	C1.000004,158.333344 1.000004,79.666679 1.000002,1.000017 
	C84.999992,1.000011 168.999985,1.000011 252.999969,1.000006 
	C252.999985,79.666649 252.999985,158.333298 253.000000,236.999969 
	C217.166672,237.000000 181.333328,237.000000 145.000000,237.000000 
M88.880554,177.540573 
	C86.946053,172.822723 83.351746,171.914078 78.514427,172.031082 
	C65.025681,172.357376 51.523849,172.163574 38.027256,172.138229 
	C26.518656,172.116623 21.422915,167.195190 21.397001,155.811340 
	C21.307493,116.488319 21.261961,77.165100 21.275740,37.841984 
	C21.279572,26.910006 26.634089,21.650860 37.628029,21.593838 
	C50.624451,21.526428 63.622326,21.655384 76.617607,21.516102 
	C79.563271,21.484531 82.799370,21.309998 85.346916,20.065470 
	C87.355186,19.084391 89.735901,16.341070 89.709145,14.411545 
	C89.681000,12.382602 87.237526,10.097374 85.362282,8.493904 
	C84.259903,7.551293 82.209038,7.429495 80.584969,7.430112 
	C64.593666,7.436183 48.578716,7.034975 32.618046,7.775081 
	C17.891319,8.457969 7.071931,20.535341 7.038015,35.257790 
	C6.943972,76.080734 6.930761,116.904205 7.033291,157.727097 
	C7.075486,174.527237 19.382206,186.512894 36.265224,186.568253 
	C48.761982,186.609222 61.262367,186.431946 73.752480,186.723099 
	C75.786942,186.770554 78.502411,188.239456 79.667816,189.912048 
	C86.709175,200.017929 93.412056,210.360443 100.188324,220.650040 
	C108.805389,233.734848 115.561699,234.518890 126.980545,223.704437 
	C127.222435,223.475357 127.456627,223.238174 127.695740,223.006149 
	C160.101151,191.562485 192.504929,160.117126 224.921814,128.685303 
	C225.786240,127.847137 226.792923,127.155685 228.183487,126.031990 
	C230.137344,136.458130 231.931778,146.257217 233.822540,156.037689 
	C234.925201,161.741455 238.044769,164.555176 242.267838,163.882492 
	C247.399124,163.065140 249.871506,158.981705 248.759674,152.943878 
	C246.228165,139.196274 243.657303,125.455856 241.069748,111.718674 
	C239.930313,105.669472 237.943222,103.805191 231.804016,103.233932 
	C223.346893,102.446976 214.878311,101.782219 206.413712,101.076355 
	C200.106873,100.550438 193.804901,99.930908 187.488373,99.569611 
	C183.892456,99.363922 180.300476,100.690819 179.661011,104.341011 
	C179.191025,107.023857 180.150436,110.582306 181.774719,112.794807 
	C182.925049,114.361710 186.212143,114.702095 188.611343,114.948784 
	C197.434845,115.855972 206.285828,116.495682 216.117371,117.319023 
	C181.762817,150.628296 148.209915,183.160309 114.416557,215.925461 
	C105.852829,203.077408 97.552620,190.624710 88.880554,177.540573 
M148.025146,108.500000 
	C148.025177,117.162025 148.006912,125.824112 148.031494,134.486069 
	C148.048645,140.531769 150.651154,143.866470 155.246597,143.833420 
	C159.816620,143.800552 162.206726,140.570526 162.269348,134.342346 
	C162.271011,134.175781 162.269638,134.009201 162.269638,133.842621 
	C162.269745,102.192924 162.272095,70.543236 162.262070,38.893543 
	C162.261642,37.564857 162.663208,35.801308 161.983078,34.992088 
	C160.204376,32.875809 158.117249,30.035355 155.795929,29.653261 
	C153.743729,29.315464 150.786682,31.500473 149.042603,33.342037 
	C147.934494,34.512070 148.067490,37.089474 148.062500,39.036835 
	C148.004105,61.857773 148.025101,84.678909 148.025146,108.500000 
M114.341553,135.908676 
	C114.483215,139.543106 115.751060,142.775040 119.579620,143.383087 
	C121.749863,143.727737 125.011642,143.191666 126.278168,141.740189 
	C127.916512,139.862595 128.716965,136.680084 128.735001,134.051575 
	C128.907440,108.923286 128.845413,83.793343 128.820435,58.663906 
	C128.818954,57.182770 128.778168,55.638359 128.373505,54.233479 
	C127.379738,50.783443 124.919472,48.929729 121.339050,49.064022 
	C117.790543,49.197113 115.386444,51.094166 114.692772,54.679600 
	C114.380447,56.293922 114.350510,57.980690 114.349213,59.634708 
	C114.329620,84.764153 114.336052,109.893623 114.341553,135.908676 
M80.898201,122.497673 
	C80.898529,126.826820 80.850014,131.156662 80.911736,135.484924 
	C80.986420,140.723389 83.738876,143.883377 88.062759,143.833206 
	C92.366219,143.783295 95.062340,140.629196 95.075729,135.347519 
	C95.117508,118.863632 95.115654,102.379494 95.075287,85.895592 
	C95.062180,80.545288 92.446976,77.378426 88.171989,77.259979 
	C83.733170,77.136993 80.927795,80.451721 80.909622,86.033119 
	C80.871124,97.854858 80.898079,109.676811 80.898201,122.497673 
M47.119404,125.487228 
	C47.120544,128.971024 47.015373,132.458878 47.148445,135.937622 
	C47.334835,140.810425 50.116608,143.800110 54.285744,143.860535 
	C58.460865,143.921021 61.412090,141.000305 61.516613,136.083817 
	C61.689335,127.959068 61.700626,119.824234 61.498646,111.700645 
	C61.375687,106.755287 58.416054,103.924438 54.185959,104.024483 
	C50.048027,104.122360 47.302765,107.142075 47.149284,112.052902 
	C47.019787,116.196259 47.120552,120.346809 47.119404,125.487228 
z"/>
<path fill="#ED6535" opacity="1.000000" stroke="none" 
	d="
M89.066483,177.856293 
	C97.552620,190.624710 105.852829,203.077408 114.416557,215.925461 
	C148.209915,183.160309 181.762817,150.628296 216.117371,117.319023 
	C206.285828,116.495682 197.434845,115.855972 188.611343,114.948784 
	C186.212143,114.702095 182.925049,114.361710 181.774719,112.794807 
	C180.150436,110.582306 179.191025,107.023857 179.661011,104.341011 
	C180.300476,100.690819 183.892456,99.363922 187.488373,99.569611 
	C193.804901,99.930908 200.106873,100.550438 206.413712,101.076355 
	C214.878311,101.782219 223.346893,102.446976 231.804016,103.233932 
	C237.943222,103.805191 239.930313,105.669472 241.069748,111.718674 
	C243.657303,125.455856 246.228165,139.196274 248.759674,152.943878 
	C249.871506,158.981705 247.399124,163.065140 242.267838,163.882492 
	C238.044769,164.555176 234.925201,161.741455 233.822540,156.037689 
	C231.931778,146.257217 230.137344,136.458130 228.183487,126.031990 
	C226.792923,127.155685 225.786240,127.847137 224.921814,128.685303 
	C192.504929,160.117126 160.101151,191.562485 127.695740,223.006149 
	C127.456627,223.238174 127.222435,223.475357 126.980545,223.704437 
	C115.561699,234.518890 108.805389,233.734848 100.188324,220.650040 
	C93.412056,210.360443 86.709175,200.017929 79.667816,189.912048 
	C78.502411,188.239456 75.786942,186.770554 73.752480,186.723099 
	C61.262367,186.431946 48.761982,186.609222 36.265224,186.568253 
	C19.382206,186.512894 7.075486,174.527237 7.033291,157.727097 
	C6.930761,116.904205 6.943972,76.080734 7.038015,35.257790 
	C7.071931,20.535341 17.891319,8.457969 32.618046,7.775081 
	C48.578716,7.034975 64.593666,7.436183 80.584969,7.430112 
	C82.209038,7.429495 84.259903,7.551293 85.362282,8.493904 
	C87.237526,10.097374 89.681000,12.382602 89.709145,14.411545 
	C89.735901,16.341070 87.355186,19.084391 85.346916,20.065470 
	C82.799370,21.309998 79.563271,21.484531 76.617607,21.516102 
	C63.622326,21.655384 50.624451,21.526428 37.628029,21.593838 
	C26.634089,21.650860 21.279572,26.910006 21.275740,37.841984 
	C21.261961,77.165100 21.307493,116.488319 21.397001,155.811340 
	C21.422915,167.195190 26.518656,172.116623 38.027256,172.138229 
	C51.523849,172.163574 65.025681,172.357376 78.514427,172.031082 
	C83.351746,171.914078 86.946053,172.822723 89.066483,177.856293 
z"/>
<path fill="#D8D8D8" opacity="1.000000" stroke="none" 
	d="
M148.025146,108.000000 
	C148.025101,84.678909 148.004105,61.857773 148.062500,39.036835 
	C148.067490,37.089474 147.934494,34.512070 149.042603,33.342037 
	C150.786682,31.500473 153.743729,29.315464 155.795929,29.653261 
	C158.117249,30.035355 160.204376,32.875809 161.983078,34.992088 
	C162.663208,35.801308 162.261642,37.564857 162.262070,38.893543 
	C162.272095,70.543236 162.269745,102.192924 162.269638,133.842621 
	C162.269638,134.009201 162.271011,134.175781 162.269348,134.342346 
	C162.206726,140.570526 159.816620,143.800552 155.246597,143.833420 
	C150.651154,143.866470 148.048645,140.531769 148.031494,134.486069 
	C148.006912,125.824112 148.025177,117.162025 148.025146,108.000000 
z"/>
<path fill="#CFCFCF" opacity="1.000000" stroke="none" 
	d="
M114.338974,135.465881 
	C114.336052,109.893623 114.329620,84.764153 114.349213,59.634708 
	C114.350510,57.980690 114.380447,56.293922 114.692772,54.679600 
	C115.386444,51.094166 117.790543,49.197113 121.339050,49.064022 
	C124.919472,48.929729 127.379738,50.783443 128.373505,54.233479 
	C128.778168,55.638359 128.818954,57.182770 128.820435,58.663906 
	C128.845413,83.793343 128.907440,108.923286 128.735001,134.051575 
	C128.716965,136.680084 127.916512,139.862595 126.278168,141.740189 
	C125.011642,143.191666 121.749863,143.727737 119.579620,143.383087 
	C115.751060,142.775040 114.483215,139.543106 114.338974,135.465881 
z"/>
<path fill="#D8D8D8" opacity="1.000000" stroke="none" 
	d="
M80.898201,121.998169 
	C80.898079,109.676811 80.871124,97.854858 80.909622,86.033119 
	C80.927795,80.451721 83.733170,77.136993 88.171989,77.259979 
	C92.446976,77.378426 95.062180,80.545288 95.075287,85.895592 
	C95.115654,102.379494 95.117508,118.863632 95.075729,135.347519 
	C95.062340,140.629196 92.366219,143.783295 88.062759,143.833206 
	C83.738876,143.883377 80.986420,140.723389 80.911736,135.484924 
	C80.850014,131.156662 80.898529,126.826820 80.898201,121.998169 
z"/>
<path fill="#CFCFCF" opacity="1.000000" stroke="none" 
	d="
M47.119400,124.990700 
	C47.120552,120.346809 47.019787,116.196259 47.149284,112.052902 
	C47.302765,107.142075 50.048027,104.122360 54.185959,104.024483 
	C58.416054,103.924438 61.375687,106.755287 61.498646,111.700645 
	C61.700626,119.824234 61.689335,127.959068 61.516613,136.083817 
	C61.412090,141.000305 58.460865,143.921021 54.285744,143.860535 
	C50.116608,143.800110 47.334835,140.810425 47.148445,135.937622 
	C47.015373,132.458878 47.120544,128.971024 47.119400,124.990700 
z"/>
</svg>